<svg xmlns="http://www.w3.org/2000/svg" xmlns:xlink="http://www.w3.org/1999/xlink" version="1.1" viewBox="185.84 743.35 3000 669.02">

    <g transform="scale(18.58376505489668) translate(10, 10)">
        <defs id="SvgjsDefs1395"/>
        <g id="SvgjsG1396" featureKey="nameLeftFeature-0" transform="matrix(2.3529471603246543,0,0,2.3529471603246543,-2.023346941614788,18.705755570033155)" fill="#fff">
            <path d="M4.8 20.1 c-0.49334 0 -0.97676 -0.05998 -1.4501 -0.17998 s-0.89334 -0.30334 -1.26 -0.55 s-0.66332 -0.56 -0.88998 -0.94 s-0.34 -0.82334 -0.34 -1.33 l0 -9.28 c0 -0.50666 0.11334 -0.95 0.34 -1.33 s0.52666 -0.69334 0.9 -0.94 s0.79668 -0.43332 1.27 -0.55998 s0.95668 -0.19 1.45 -0.19 s0.97668 0.06334 1.45 0.19 s0.89334 0.31332 1.26 0.55998 s0.66 0.56 0.88 0.94 s0.33 0.82334 0.33 1.33 l0 1.48 l-1.5 0 c-0.33334 0 -0.61334 -0.1 -0.84 -0.3 s-0.34 -0.46 -0.34 -0.78 l0 -0.02 c0 -0.13334 -0.01666 -0.26668 -0.05 -0.40002 s-0.09334 -0.25 -0.18 -0.35 s-0.21332 -0.18 -0.37998 -0.24 s-0.38332 -0.09 -0.64998 -0.09 c-0.25334 0 -0.46 0.03334 -0.62 0.1 s-0.28666 0.14666 -0.38 0.24 s-0.15668 0.2 -0.19002 0.32 s-0.05 0.22666 -0.05 0.32 l0 8.76 c0 0.18666 0.12 0.37666 0.36 0.57 s0.53334 0.29 0.88 0.29 s0.64666 -0.08 0.9 -0.24 s0.38 -0.34666 0.38 -0.56 l0 -0.2 c0 -0.30666 0.09 -0.57 0.27 -0.79 s0.45 -0.33 0.81 -0.33 l1.58 0 l0 1.5 c0 0.50666 -0.11334 0.95 -0.34 1.33 s-0.52332 0.69334 -0.88998 0.94 s-0.78666 0.43 -1.26 0.55 s-0.95668 0.18 -1.45 0.18 z"/>
        </g>
        <g id="SvgjsG1397" featureKey="inlineSymbolFeature-0" transform="matrix(0.6356204536882375,0,0,0.6356204536882375,12.51954947734253,15.348661700522658)" fill="#fff">
            <path xmlns="http://www.w3.org/2000/svg" d="M50.468,79.688c3.308-0.008,4.781-0.357,4.781-0.357s-0.949-3.729-1.13-5.967s-0.284-3.404,0-6.465  c0.27-2.9,0.722-8.166,2.679-9.426c1.716-1.105,7.724-3.627,9.293-4.621s6.639-4.724,7.664-5.532  c1.026-0.808,6.64-5.097,8.209-7.023s2.232-2.486,3.198-4.351c0.966-1.864,1.569-4.91,1.569-6.278c0-1.367,0-4.351-0.423-5.407  c-0.422-1.057-0.543-1.305-1.388-1.181c-0.845,0.124-0.604-0.125-1.146,0.994c-0.544,1.119-1.026,2.921-1.992,3.419  c-0.966,0.497-11.226,1.678-15.028,3.356c-3.802,1.678-6.99,3.261-11.226,6.34c-3.078,2.237-5.491,6.34-5.491,6.34l-0.033-0.053  c0,0-2.382-4.049-5.459-6.287c-4.235-3.079-7.424-4.662-11.227-6.34c-3.802-1.678-14.062-2.859-15.027-3.356  c-0.967-0.498-1.449-2.3-1.992-3.419c-0.543-1.119-0.302-0.87-1.146-0.994c-0.846-0.125-0.966,0.124-1.389,1.181  c-0.422,1.057-0.422,4.04-0.422,5.407c0,1.368,0.604,4.414,1.568,6.278c0.966,1.865,1.63,2.424,3.199,4.351s7.183,6.215,8.208,7.023  c1.026,0.808,6.096,4.538,7.665,5.532s7.576,3.516,9.293,4.621c1.957,1.26,3.138,6.525,3.388,9.426c0.279,3.252,0.181,4.227,0,6.465  s-0.936,6.076-0.936,6.076S47.579,79.691,50.468,79.688z"/>
        </g>
        <g id="SvgjsG1398" featureKey="nameRightFeature-0" transform="matrix(2.393629473153706,0,0,2.393629473153706,69.65942367652111,17.98398579728063)" fill="#fff">
            <path d="M6.24 5.039999999999999 c0.45334 0 0.8434 0.099922 1.1701 0.29992 s0.59666 0.45 0.81 0.75 s0.37 0.63 0.47 0.99 s0.15 0.69334 0.15 1 l0 2.7 c0 0.49334 -0.06334 0.94668 -0.19 1.36 s-0.32332 0.77 -0.58998 1.07 s-0.60666 0.53334 -1.02 0.7 s-0.90668 0.25 -1.48 0.25 l-1.22 0 c-0.2 0 -0.3 0.08 -0.3 0.24 l0 3.02 c0 0.13334 0.02 0.22668 0.06 0.28002 s0.08666 0.10668 0.14 0.16002 c0.10666 0.08 0.21332 0.19334 0.31998 0.34 s0.16 0.33332 0.16 0.55998 l0 1.26 l-4.1 0 l0 -1.26 c0 -0.22666 0.05334 -0.41332 0.16 -0.55998 s0.21332 -0.26 0.31998 -0.34 c0.05334 -0.04 0.1 -0.08666 0.14 -0.14 s0.06 -0.14 0.06 -0.26 l0 -9.82 c0 -0.10666 -0.0033398 -0.19332 -0.01 -0.25998 s-0.05 -0.12666 -0.13 -0.18 c-0.13334 -0.06666 -0.26668 -0.18 -0.40002 -0.34 s-0.2 -0.38 -0.2 -0.66 l0 -1.16 l5.68 0 z M6.12 8.52 c0 -0.46666 -0.11332 -0.7734 -0.33998 -0.92006 s-0.48666 -0.22 -0.78 -0.22 l-0.46 0 c-0.22666 0.01334 -0.36666 0.05668 -0.42 0.13002 s-0.08 0.15668 -0.08 0.25002 l0 3.96 c0 0.08 0.02334 0.15666 0.07 0.23 s0.18332 0.11668 0.40998 0.13002 l0.46 0 c0.44 0 0.74 -0.13666 0.9 -0.41 s0.24 -0.64334 0.24 -1.11 l0 -2.04 z M18.9 17.4 c0 0.14666 0.02002 0.24666 0.06002 0.3 s0.08666 0.1 0.14 0.14 c0.10666 0.08 0.21332 0.19334 0.31998 0.34 s0.16 0.33332 0.16 0.55998 l0 1.26 l-4.1 0 l0 -1.26 c0 -0.22666 0.05334 -0.41332 0.16 -0.55998 s0.21332 -0.26 0.31998 -0.34 c0.06666 -0.04 0.11666 -0.08666 0.15 -0.14 s0.05 -0.15334 0.05 -0.3 l0 -3.74 c0 -0.18666 -0.1 -0.28 -0.3 -0.28 l-2.04 0 c-0.18666 0 -0.28 0.09334 -0.28 0.28 l0 3.74 c0 0.14666 0.01666 0.24666 0.05 0.3 s0.08334 0.1 0.15 0.14 c0.10666 0.08 0.21332 0.19334 0.31998 0.34 s0.16 0.33332 0.16 0.55998 l0 1.26 l-4.12 0 l0 -1.26 c0 -0.22666 0.05334 -0.41332 0.16 -0.55998 s0.21332 -0.26 0.31998 -0.34 c0.06666 -0.04 0.11666 -0.08666 0.15 -0.14 s0.05 -0.15334 0.05 -0.3 l0.02 0 l0 -0.52 l0 -9.24 l-0.02 0 c0 -0.13334 -0.01666 -0.22668 -0.05 -0.28002 s-0.08334 -0.10668 -0.15 -0.16002 c-0.10666 -0.08 -0.21332 -0.19334 -0.31998 -0.34 s-0.16 -0.33332 -0.16 -0.55998 l0 -1.26 l4.12 0 l0 1.26 c0 0.22666 -0.05334 0.41332 -0.16 0.55998 s-0.21332 0.26 -0.31998 0.34 c-0.06666 0.05334 -0.11666 0.10668 -0.15 0.16002 s-0.05 0.14668 -0.05 0.28002 l0 3.1 c0 0.10666 0.03334 0.18 0.1 0.22 s0.13332 0.06 0.19998 0.06 l2.04 0 c0.18666 0 0.28 -0.09334 0.28 -0.28 l0 -3.1 c0 -0.13334 -0.01666 -0.22668 -0.05 -0.28002 s-0.08334 -0.10668 -0.15 -0.16002 c-0.10666 -0.08 -0.21332 -0.19334 -0.31998 -0.34 s-0.16 -0.33332 -0.16 -0.55998 l0 -1.26 l4.1 0 l0 1.26 c0 0.22666 -0.05334 0.41332 -0.16 0.55998 s-0.21332 0.26 -0.31998 0.34 c-0.05334 0.05334 -0.1 0.10668 -0.14 0.16002 s-0.06 0.14668 -0.06 0.28002 l0 9.76 z M24.36 7.359999999999999 c-0.06666 0 -0.12998 0.030058 -0.18998 0.090058 s-0.09 0.12334 -0.09 0.19 l0 3.32 c0 0.09334 0.03 0.16334 0.09 0.21 s0.13 0.07 0.21 0.07 l2.52 0 c0.06666 0 0.13666 0.02334 0.21 0.07 s0.11 0.12332 0.11 0.22998 l0 1.6 c0 0.18666 -0.1 0.28 -0.3 0.28 l-2.54 0 c-0.2 0 -0.3 0.08666 -0.3 0.26 l0 3.74 c0 0.08 0.03334 0.14666 0.1 0.2 s0.14 0.08 0.22 0.08 l1.6 0 c0.12 0 0.21334 -0.06666 0.28 -0.2 c0.02666 -0.06666 0.06 -0.14666 0.1 -0.24 s0.09666 -0.18 0.17 -0.26 s0.16334 -0.15 0.27 -0.21 s0.23332 -0.09 0.37998 -0.09 l1.24 0 l0 2.8 c0 0.14666 -0.07334 0.26666 -0.22 0.36 s-0.29332 0.14 -0.43998 0.14 l-1.3 0 l-4.58 0 l-1.2 0 l0 -1.2 c0 -0.29334 0.04 -0.51668 0.12 -0.67002 s0.18666 -0.26334 0.32 -0.33 c0.16 -0.09334 0.24 -0.23334 0.24 -0.42 l0 -9.72 c0 -0.21334 -0.08666 -0.36668 -0.26 -0.46002 c-0.13334 -0.06666 -0.23668 -0.17 -0.31002 -0.31 s-0.11 -0.34334 -0.11 -0.61 l0 -1.26 l7.16 0 c0.16 0 0.29666 0.06 0.41 0.18 s0.17 0.23334 0.17 0.34 l0 2.64 l-1.18 0 c-0.26666 0 -0.48 -0.06666 -0.64 -0.2 s-0.27334 -0.26 -0.34 -0.38 c-0.09334 -0.16 -0.23334 -0.24 -0.42 -0.24 l-1.5 0 l0 0 z M37.88 17.9 c0.09334 0.06666 0.19336 0.16992 0.30002 0.30992 s0.16 0.33 0.16 0.57 l0 1.28 l-2.24 0 c-0.17334 0 -0.33334 -0.05 -0.48 -0.15 s-0.27332 -0.22334 -0.37998 -0.37 s-0.19 -0.30666 -0.25 -0.48 s-0.09 -0.33334 -0.09 -0.48 l0 -3.5 c0 -0.24 -0.03666 -0.43334 -0.11 -0.58 s-0.16 -0.26 -0.26 -0.34 s-0.21 -0.13334 -0.33 -0.16 s-0.22666 -0.04 -0.32 -0.04 l-0.44 0 c-0.22666 0.01334 -0.37 0.04 -0.43 0.08 s-0.09 0.12666 -0.09 0.26 l0 3.18 c0 0.12 0.05666 0.22666 0.17 0.32 s0.20334 0.17334 0.27 0.24 c0.10666 0.10666 0.17332 0.22 0.19998 0.34 s0.04 0.3 0.04 0.54 l0 1.14 l-4 0 l0 -1.08 c0 -0.22666 0.01666 -0.42332 0.05 -0.58998 s0.10334 -0.28332 0.21 -0.34998 c0.06666 -0.05334 0.13332 -0.13668 0.19998 -0.25002 s0.1 -0.22334 0.1 -0.33 l0 -9.56 c0 -0.10666 -0.0066602 -0.22666 -0.02 -0.36 s-0.04668 -0.21334 -0.10002 -0.24 c-0.10666 -0.06666 -0.20666 -0.17332 -0.3 -0.31998 s-0.14 -0.35332 -0.14 -0.61998 l0 -1.26 l4.96 0 c1 0 1.7567 0.31 2.27 0.93 s0.77 1.4233 0.77 2.41 l0 1.8 c0 0.42666 -0.05334 0.81666 -0.16 1.17 s-0.29332 0.64334 -0.55998 0.87 c-0.02666 0.01334 -0.04666 0.05 -0.06 0.11 s0.01332 0.11 0.07998 0.15 c0.29334 0.22666 0.48668 0.47 0.58002 0.73 s0.14 0.63666 0.14 1.13 l0 3.08 c0 0.12 0.02666 0.20666 0.08 0.26 s0.11334 0.10668 0.18 0.16002 z M34.96 8.7 c0 -0.46666 -0.06334 -0.79336 -0.19 -0.98002 s-0.40332 -0.28 -0.82998 -0.28 l-0.82 0 c-0.13334 0 -0.2 0.10666 -0.2 0.32 l0 3.6 c0 0.13334 0.02666 0.21668 0.08 0.25002 s0.17334 0.05 0.36 0.05 l0.46 0 c0.34666 0 0.62332 -0.06 0.82998 -0.18 s0.31 -0.41334 0.31 -0.88 l0 -1.9 z"/>
        </g>
    </g>
</svg>