<?xml version="1.0" encoding="UTF-8"?>
<svg xmlns="http://www.w3.org/2000/svg" xmlns:xlink="http://www.w3.org/1999/xlink" width="510px" height="510px" viewBox="0 0 510 395" version="1.1">
<g id="surface1">
<path style=" stroke:none;fill-rule:nonzero;fill:rgb(100%,100%,100%);fill-opacity:1;" d="M 259.007812 394.996094 C 282.082031 394.941406 292.355469 392.507812 292.355469 392.507812 C 292.355469 392.507812 285.738281 366.5 284.472656 350.894531 C 283.210938 335.285156 282.492188 327.152344 284.472656 305.804688 C 286.359375 285.582031 289.511719 248.855469 303.160156 240.066406 C 315.132812 232.359375 357.039062 214.773438 367.984375 207.839844 C 378.929688 200.90625 414.292969 174.894531 421.441406 169.257812 C 428.601562 163.625 467.761719 133.710938 478.703125 120.28125 C 489.648438 106.847656 494.273438 102.941406 501.011719 89.933594 C 507.75 76.9375 511.957031 55.691406 511.957031 46.152344 C 511.957031 36.617188 511.957031 15.808594 509.003906 8.441406 C 506.0625 1.070312 505.21875 -0.660156 499.324219 0.207031 C 493.429688 1.070312 495.109375 -0.664062 491.328125 7.140625 C 487.535156 14.941406 484.171875 27.511719 477.433594 30.984375 C 470.695312 34.449219 399.128906 42.6875 372.609375 54.386719 C 346.089844 66.089844 323.851562 77.132812 294.300781 98.605469 C 272.832031 114.207031 256 142.820312 256 142.820312 L 255.769531 142.449219 C 255.769531 142.449219 239.15625 114.210938 217.691406 98.605469 C 188.152344 77.132812 165.90625 66.089844 139.378906 54.386719 C 112.859375 42.6875 41.289062 34.449219 34.558594 30.984375 C 27.8125 27.511719 24.453125 14.941406 20.664062 7.140625 C 16.875 -0.664062 18.558594 1.070312 12.671875 0.207031 C 6.769531 -0.664062 5.933594 1.070312 2.980469 8.441406 C 0.0390625 15.816406 0.0390625 36.617188 0.0390625 46.152344 C 0.0390625 55.691406 4.25 76.9375 10.976562 89.933594 C 17.714844 102.941406 22.34375 106.839844 33.289062 120.28125 C 44.234375 133.71875 83.394531 163.625 90.542969 169.257812 C 97.699219 174.894531 133.066406 200.90625 144.011719 207.839844 C 154.953125 214.773438 196.855469 232.359375 208.832031 240.066406 C 222.484375 248.855469 230.722656 285.574219 232.464844 305.804688 C 234.410156 328.484375 233.726562 335.285156 232.464844 350.894531 C 231.203125 366.5 225.9375 393.269531 225.9375 393.269531 C 225.9375 393.269531 238.855469 395.019531 259.007812 394.996094 Z M 259.007812 394.996094 "/>
</g>
</svg>
